<svg width="16" height="17" viewBox="0 0 16 17" fill="none" xmlns="http://www.w3.org/2000/svg">
<path d="M13.942 1.89705C12.8288 0.871654 11.0232 0.871654 9.91007 1.89705L2.56582 8.6645C0.77671 10.3142 0.77671 12.986 2.56582 14.6357C4.35569 16.2853 7.25529 16.2853 9.04555 14.6357L14.8601 9.27783C15.0972 9.05576 15.4874 9.05576 15.7246 9.27783C15.9656 9.49638 15.9656 9.85591 15.7246 10.0745L9.91007 15.4323C7.64165 17.5226 3.9349 17.5226 1.70053 15.4323C-0.566862 13.342 -0.566823 9.92641 1.70053 7.86787L9.04555 1.09972C10.6369 -0.366572 13.2152 -0.366572 14.8065 1.09972C16.3978 2.56572 16.3978 4.94221 14.8065 6.40856L7.77554 12.8873C6.69679 13.8813 4.92184 13.7897 3.9349 12.6935C3.15339 11.7241 3.23487 10.4023 4.15677 9.55277L9.96363 4.20198C10.2008 3.97991 10.591 3.97991 10.8282 4.20198C11.0691 4.42052 11.0691 4.78006 10.8282 4.99861L5.0213 10.3494C4.5087 10.7935 4.49723 11.4985 4.89124 11.9885C5.38853 12.5595 6.34869 12.6089 6.91101 12.0907L13.942 5.61194C15.0551 4.58619 15.0551 2.92279 13.942 1.89705Z" fill="black" fill-opacity="0.6"/>
</svg>
