<svg width="39" height="32" viewBox="0 0 39 32" fill="none" xmlns="http://www.w3.org/2000/svg">
<path fill-rule="evenodd" clip-rule="evenodd" d="M25.9288 6.83908C28.2327 6.15294 30.1931 4.65015 31.3745 2.66136L32.2817 1.13538C32.761 0.326178 34.0256 0.421505 34.2833 1.28701L35.5881 5.66812C36.2798 5.753 36.9352 6.34126 37.1875 7.1884C37.4398 8.03553 37.213 8.88649 36.6804 9.336L37.9853 13.7174C38.243 14.5828 37.2368 15.3551 36.3926 14.9388L34.7982 14.1575C32.7928 13.1747 30.4229 12.9416 28.1955 13.5719L29.135 16.7267C29.4145 17.6649 28.8153 18.673 27.7983 18.9759L26.7451 19.2896C25.7271 19.5928 24.675 19.0764 24.3955 18.1382L23.4551 14.9804C22.2916 15.3269 21.0891 14.7363 20.7699 13.6645L19.9018 10.7496C19.5826 9.67777 20.2661 8.52552 21.4296 8.17902L25.9288 6.83908ZM33.0528 2.93044L32.7972 3.3596C31.4412 5.64038 29.2214 7.3791 26.6022 8.22193L27.7615 12.1145C30.4069 11.3597 33.2244 11.628 35.6075 12.7959L36.0564 13.0159L33.0528 2.93044ZM25.9754 17.6677C26.0152 17.8013 26.1662 17.8753 26.311 17.8322L27.3642 17.5185C27.5091 17.4754 27.595 17.3308 27.5552 17.1972L26.6148 14.0394L25.0349 14.5099L25.9754 17.6677ZM21.4817 10.2791L22.3498 13.194C22.4293 13.4612 22.722 13.5823 23.0129 13.4956L26.1726 12.5546L25.0233 8.69546L21.8636 9.63645C21.5727 9.7231 21.4021 10.0119 21.4817 10.2791ZM16.7515 12.622C16.7515 8.66767 19.7594 5.35961 23.785 4.52867C21.4554 3.03362 18.6668 2.16376 15.6699 2.16376C7.50388 2.16376 0.884033 8.62215 0.884033 16.589C0.884033 19.846 1.99047 22.851 3.85666 25.2655L2.11109 30.0425C1.80906 30.8691 2.64491 31.6546 3.45115 31.3019L8.38369 29.144C10.5342 30.3345 13.0207 31.0142 15.6699 31.0142C22.6615 31.0142 28.5198 26.2798 30.0601 19.9178C28.7837 20.5548 27.3214 20.9165 25.7673 20.9165C20.788 20.9165 16.7515 17.203 16.7515 12.622ZM12.4249 22.3591C12.0265 22.3591 11.7036 22.682 11.7036 23.0803C11.7036 23.4787 12.0265 23.8016 12.4249 23.8016H20.3587C20.7571 23.8016 21.08 23.4787 21.08 23.0803C21.08 22.682 20.7571 22.3591 20.3587 22.3591H12.4249ZM5.21216 17.3103C5.21216 16.9119 5.53508 16.589 5.93342 16.589H16.0311C16.4294 16.589 16.7523 16.9119 16.7523 17.3103C16.7523 17.7086 16.4294 18.0315 16.0311 18.0315H5.93342C5.53508 18.0315 5.21216 17.7086 5.21216 17.3103ZM7.37556 10.8189C6.97722 10.8189 6.6543 11.1418 6.6543 11.5402C6.6543 11.9385 6.97722 12.2614 7.37556 12.2614H15.3094C15.7078 12.2614 16.0307 11.9385 16.0307 11.5402C16.0307 11.1418 15.7078 10.8189 15.3094 10.8189H7.37556Z" fill="#4F46E5"/>
</svg>
