<svg width="18" height="18" viewBox="0 0 18 18" fill="none" xmlns="http://www.w3.org/2000/svg">
<g clip-path="url(#clip0_2666_5637)">
<path d="M9 0C10.2937 0 11.4187 0.727734 11.9848 1.79648C13.1414 1.40977 14.4176 1.72125 15.3633 2.63602C16.2773 3.55078 16.527 4.85859 16.2035 6.01523C17.2723 6.58125 18 7.70625 18 9C18 10.2937 17.2723 11.4187 16.2035 11.9848C16.5586 13.1414 16.2773 14.4176 15.3633 15.3633C14.4176 16.2773 13.1414 16.527 11.9848 16.2035C11.4187 17.2723 10.2937 18 9 18C7.70625 18 6.58125 17.2723 6.01523 16.2035C4.85859 16.5586 3.55078 16.2773 2.63602 15.3633C1.72125 14.4176 1.44141 13.1414 1.79648 11.9848C0.727734 11.4187 0 10.2937 0 9C0 7.70625 0.727734 6.58125 1.79648 6.01523C1.40977 4.85859 1.72125 3.55078 2.63602 2.63602C3.55078 1.72125 4.85859 1.44141 6.01523 1.79648C6.58125 0.727734 7.70625 0 9 0ZM12.3785 7.87852C12.7371 7.57969 12.7371 7.04531 12.3785 6.71484C12.0797 6.38789 11.5453 6.38789 11.2148 6.71484L7.875 10.0582L6.47227 8.68359C6.17344 8.35664 5.63906 8.35664 5.30859 8.68359C4.98164 9.01406 4.98164 9.54844 5.30859 9.84727L7.27734 11.816C7.60781 12.1746 8.14219 12.1746 8.44102 11.816L12.3785 7.87852Z" fill="#00C267"/>
</g>
<defs>
<clipPath id="clip0_2666_5637">
<rect width="18" height="18" fill="white"/>
</clipPath>
</defs>
</svg>
