<svg width="13" height="13" viewBox="0 0 13 13" fill="none" xmlns="http://www.w3.org/2000/svg">
<path d="M12.7613 1.79334L11.2062 0.238164C11.0551 0.0855918 10.8469 0 10.6311 0H6.47728C5.57973 0 4.85231 0.727695 4.85231 1.625L4.8528 8.125C4.87516 9.02383 5.60386 9.75 6.50013 9.75H11.375C12.2688 9.75 13 9.01875 13 8.125V2.36768C13 2.15236 12.9137 1.94568 12.7613 1.79334ZM11.7813 8.125C11.7813 8.34935 11.5994 8.53125 11.375 8.53125H6.47728C6.25288 8.53125 6.07103 8.34935 6.07103 8.125V1.6283C6.07103 1.40395 6.25293 1.22205 6.47728 1.22205H9.72721L9.75006 2.4375C9.75006 2.88615 10.1139 3.25 10.5625 3.25H11.7584V8.125H11.7813ZM6.90637 11.375C6.90637 11.5994 6.72447 11.7812 6.50013 11.7812H1.60237C1.37797 11.7812 1.19613 11.5994 1.19613 11.375L1.21847 4.87754C1.21847 4.65319 1.40037 4.47129 1.62471 4.47129H4.06267V3.25H1.62497C0.727427 3.25 0 3.97744 0 4.875L0.000248823 11.375C0.000304682 12.2713 0.727935 13 1.62522 13H6.50013C7.39386 13 8.1251 12.2688 8.1251 11.375V10.5625H6.92922L6.90637 11.375Z" fill="#4F46E5"/>
</svg>
