<svg width="22" height="22" viewBox="0 0 22 22" fill="none" xmlns="http://www.w3.org/2000/svg">
<path d="M16.1555 0.913037C17.3722 -0.304346 19.3467 -0.304346 20.5635 0.913037L21.0874 1.4378C22.3042 2.65531 22.3042 4.62922 21.0874 5.84587L12.5485 14.3884C12.1718 14.7607 11.7085 15.0335 11.1976 15.1807L6.86749 16.419C6.50376 16.5229 6.11406 16.419 5.84559 16.1159C5.58146 15.8865 5.47754 15.4968 5.58146 15.1331L6.81986 10.8034C6.96708 10.2925 7.23988 9.8292 7.61226 9.45251L16.1555 0.913037ZM19.0566 2.38254C18.6886 1.97685 18.0304 1.97685 17.6234 2.38254L16.3633 3.64205L18.3595 5.63805L19.6195 4.33913C20.0266 3.97111 20.0266 3.31299 19.6195 2.9073L19.0566 2.38254ZM8.82035 11.3749L8.0929 13.9078L10.626 13.1804C10.7992 13.1328 10.9507 13.0418 11.0763 12.9163L16.8916 7.10581L14.8954 5.10982L9.08449 10.9246C8.95891 11.0502 8.86798 11.2017 8.82035 11.3749ZM8.66014 2.60292C9.23604 2.60292 9.69936 3.06836 9.69936 3.64205C9.69936 4.2179 9.23604 4.68118 8.66014 4.68118H3.81046C2.85395 4.68118 2.07843 5.4562 2.07843 6.41306V18.1899C2.07843 19.1467 2.85395 19.9217 3.81046 19.9217H15.5882C16.5452 19.9217 17.3203 19.1467 17.3203 18.1899V13.3406C17.3203 12.7647 17.7836 12.3015 18.3595 12.3015C18.9354 12.3015 19.3987 12.7647 19.3987 13.3406V18.1899C19.3987 20.2941 17.6927 22 15.5882 22H3.81046C1.70605 22 0 20.2941 0 18.1899V6.41306C0 4.30883 1.70605 2.60292 3.81046 2.60292H8.66014Z" fill="#4F46E5"/>
</svg>
