<svg width="34" height="34" viewBox="0 0 34 34" fill="none" xmlns="http://www.w3.org/2000/svg">
<mask id="path-1-inside-1_1897_4038" fill="white">
<path fill-rule="evenodd" clip-rule="evenodd" d="M33.178 16.589C33.178 25.7508 25.7508 33.178 16.589 33.178C7.42715 33.178 0 25.7508 0 16.589C0 7.42715 7.42715 0 16.589 0C25.7508 0 33.178 7.42715 33.178 16.589ZM20.4737 13.8465H24.965C26.2353 13.8465 27.265 14.8762 27.265 16.1465V17.0315C27.265 18.3018 26.2353 19.3315 24.965 19.3315H20.4737C19.2034 19.3315 18.1737 18.3018 18.1737 17.0315V16.1465C18.1737 14.8762 19.2034 13.8465 20.4737 13.8465ZM20.4737 15.1465C19.9214 15.1465 19.4737 15.5942 19.4737 16.1465V17.0315C19.4737 17.5838 19.9214 18.0315 20.4737 18.0315H24.965C25.5173 18.0315 25.965 17.5838 25.965 17.0315V16.1465C25.965 15.5942 25.5173 15.1465 24.965 15.1465H20.4737ZM20.1809 10.6552H12.9333C11.2765 10.6552 9.93335 11.9983 9.93335 13.6551V19.5229C9.93335 21.1797 11.2765 22.5229 12.9333 22.5229H20.1809C21.7305 22.5229 23.0057 21.348 23.1643 19.8404C23.5697 19.8507 23.9808 19.8559 24.3966 19.8559C24.6564 19.8559 24.9144 19.8539 25.1704 19.8498C25.002 22.4589 22.8325 24.5229 20.1809 24.5229H12.9333C10.1719 24.5229 7.93335 22.2843 7.93335 19.5229V13.6551C7.93335 10.8937 10.1719 8.65515 12.9333 8.65515H20.1809C22.8325 8.65515 25.002 10.7192 25.1704 13.3283C24.9144 13.3242 24.6564 13.3222 24.3966 13.3222C23.9808 13.3222 23.5697 13.3274 23.1643 13.3377C23.0057 11.8301 21.7305 10.6552 20.1809 10.6552Z"/>
</mask>
<path fill-rule="evenodd" clip-rule="evenodd" d="M33.178 16.589C33.178 25.7508 25.7508 33.178 16.589 33.178C7.42715 33.178 0 25.7508 0 16.589C0 7.42715 7.42715 0 16.589 0C25.7508 0 33.178 7.42715 33.178 16.589ZM20.4737 13.8465H24.965C26.2353 13.8465 27.265 14.8762 27.265 16.1465V17.0315C27.265 18.3018 26.2353 19.3315 24.965 19.3315H20.4737C19.2034 19.3315 18.1737 18.3018 18.1737 17.0315V16.1465C18.1737 14.8762 19.2034 13.8465 20.4737 13.8465ZM20.4737 15.1465C19.9214 15.1465 19.4737 15.5942 19.4737 16.1465V17.0315C19.4737 17.5838 19.9214 18.0315 20.4737 18.0315H24.965C25.5173 18.0315 25.965 17.5838 25.965 17.0315V16.1465C25.965 15.5942 25.5173 15.1465 24.965 15.1465H20.4737ZM20.1809 10.6552H12.9333C11.2765 10.6552 9.93335 11.9983 9.93335 13.6551V19.5229C9.93335 21.1797 11.2765 22.5229 12.9333 22.5229H20.1809C21.7305 22.5229 23.0057 21.348 23.1643 19.8404C23.5697 19.8507 23.9808 19.8559 24.3966 19.8559C24.6564 19.8559 24.9144 19.8539 25.1704 19.8498C25.002 22.4589 22.8325 24.5229 20.1809 24.5229H12.9333C10.1719 24.5229 7.93335 22.2843 7.93335 19.5229V13.6551C7.93335 10.8937 10.1719 8.65515 12.9333 8.65515H20.1809C22.8325 8.65515 25.002 10.7192 25.1704 13.3283C24.9144 13.3242 24.6564 13.3222 24.3966 13.3222C23.9808 13.3222 23.5697 13.3274 23.1643 13.3377C23.0057 11.8301 21.7305 10.6552 20.1809 10.6552Z" fill="#E4F1FF"/>
<path d="M23.1643 19.8404L23.2151 17.841L21.3685 17.7941L21.1753 19.6312L23.1643 19.8404ZM25.1704 19.8498L27.1662 19.9786L27.3058 17.8157L25.1387 17.8501L25.1704 19.8498ZM25.1704 13.3283L25.1387 15.328L27.3058 15.3624L27.1662 13.1995L25.1704 13.3283ZM23.1643 13.3377L21.1753 13.5469L21.3685 15.384L23.2151 15.3371L23.1643 13.3377ZM16.589 35.178C26.8554 35.178 35.178 26.8554 35.178 16.589H31.178C31.178 24.6463 24.6463 31.178 16.589 31.178V35.178ZM-2 16.589C-2 26.8554 6.32258 35.178 16.589 35.178V31.178C8.53171 31.178 2 24.6463 2 16.589H-2ZM16.589 -2C6.32258 -2 -2 6.32258 -2 16.589H2C2 8.53171 8.53171 2 16.589 2V-2ZM35.178 16.589C35.178 6.32258 26.8554 -2 16.589 -2V2C24.6463 2 31.178 8.53171 31.178 16.589H35.178ZM24.965 11.8465H20.4737V15.8465H24.965V11.8465ZM29.265 16.1465C29.265 13.7717 27.3398 11.8465 24.965 11.8465V15.8465C25.1307 15.8465 25.265 15.9808 25.265 16.1465H29.265ZM29.265 17.0315V16.1465H25.265V17.0315H29.265ZM24.965 21.3315C27.3398 21.3315 29.265 19.4063 29.265 17.0315H25.265C25.265 17.1972 25.1307 17.3315 24.965 17.3315V21.3315ZM20.4737 21.3315H24.965V17.3315H20.4737V21.3315ZM16.1737 17.0315C16.1737 19.4063 18.0988 21.3315 20.4737 21.3315V17.3315C20.308 17.3315 20.1737 17.1972 20.1737 17.0315H16.1737ZM16.1737 16.1465V17.0315H20.1737V16.1465H16.1737ZM20.4737 11.8465C18.0988 11.8465 16.1737 13.7717 16.1737 16.1465H20.1737C20.1737 15.9808 20.308 15.8465 20.4737 15.8465V11.8465ZM21.4737 16.1465C21.4737 16.6988 21.026 17.1465 20.4737 17.1465V13.1465C18.8168 13.1465 17.4737 14.4896 17.4737 16.1465H21.4737ZM21.4737 17.0315V16.1465H17.4737V17.0315H21.4737ZM20.4737 16.0315C21.026 16.0315 21.4737 16.4792 21.4737 17.0315H17.4737C17.4737 18.6884 18.8168 20.0315 20.4737 20.0315V16.0315ZM24.965 16.0315H20.4737V20.0315H24.965V16.0315ZM23.965 17.0315C23.965 16.4792 24.4127 16.0315 24.965 16.0315V20.0315C26.6219 20.0315 27.965 18.6884 27.965 17.0315H23.965ZM23.965 16.1465V17.0315H27.965V16.1465H23.965ZM24.965 17.1465C24.4127 17.1465 23.965 16.6988 23.965 16.1465H27.965C27.965 14.4896 26.6219 13.1465 24.965 13.1465V17.1465ZM20.4737 17.1465H24.965V13.1465H20.4737V17.1465ZM12.9333 12.6552H20.1809V8.65515H12.9333V12.6552ZM11.9333 13.6551C11.9333 13.1029 12.3811 12.6552 12.9333 12.6552V8.65515C10.1719 8.65515 7.93335 10.8937 7.93335 13.6551H11.9333ZM11.9333 19.5229V13.6551H7.93335V19.5229H11.9333ZM12.9333 20.5229C12.3811 20.5229 11.9333 20.0752 11.9333 19.5229H7.93335C7.93335 22.2843 10.1719 24.5229 12.9333 24.5229V20.5229ZM20.1809 20.5229H12.9333V24.5229H20.1809V20.5229ZM21.1753 19.6312C21.1226 20.1316 20.6961 20.5229 20.1809 20.5229V24.5229C22.7649 24.5229 24.8888 22.5644 25.1533 20.0496L21.1753 19.6312ZM24.3966 17.8559C23.9977 17.8559 23.6035 17.8509 23.2151 17.841L23.1135 21.8397C23.5359 21.8504 23.9639 21.8559 24.3966 21.8559V17.8559ZM25.1387 17.8501C24.8933 17.854 24.6459 17.8559 24.3966 17.8559V21.8559C24.667 21.8559 24.9355 21.8538 25.2021 21.8496L25.1387 17.8501ZM20.1809 26.5229C23.8939 26.5229 26.9303 23.6332 27.1662 19.9786L23.1745 19.721C23.0736 21.2845 21.7711 22.5229 20.1809 22.5229V26.5229ZM12.9333 26.5229H20.1809V22.5229H12.9333V26.5229ZM5.93335 19.5229C5.93335 23.3889 9.06736 26.5229 12.9333 26.5229V22.5229C11.2765 22.5229 9.93335 21.1797 9.93335 19.5229H5.93335ZM5.93335 13.6551V19.5229H9.93335V13.6551H5.93335ZM12.9333 6.65515C9.06736 6.65515 5.93335 9.78916 5.93335 13.6551H9.93335C9.93335 11.9983 11.2765 10.6552 12.9333 10.6552V6.65515ZM20.1809 6.65515H12.9333V10.6552H20.1809V6.65515ZM27.1662 13.1995C26.9304 9.54489 23.8939 6.65515 20.1809 6.65515V10.6552C21.7711 10.6552 23.0736 11.8935 23.1745 13.4571L27.1662 13.1995ZM24.3966 15.3222C24.6459 15.3222 24.8933 15.3241 25.1387 15.328L25.2021 11.3285C24.9356 11.3243 24.667 11.3222 24.3966 11.3222V15.3222ZM23.2151 15.3371C23.6035 15.3272 23.9977 15.3222 24.3966 15.3222V11.3222C23.9639 11.3222 23.5359 11.3276 23.1135 11.3384L23.2151 15.3371ZM20.1809 12.6552C20.6962 12.6552 21.1226 13.0465 21.1753 13.5469L25.1533 13.1285C24.8888 10.6137 22.7649 8.65515 20.1809 8.65515V12.6552Z" fill="#E4F1FF" mask="url(#path-1-inside-1_1897_4038)"/>
</svg>
