<svg width="34" height="34" viewBox="0 0 34 34" fill="none" xmlns="http://www.w3.org/2000/svg">
<mask id="path-1-inside-1_1897_4075" fill="white">
<path fill-rule="evenodd" clip-rule="evenodd" d="M30.8634 24.4425C32.027 22.1391 32.6844 19.5236 32.6844 16.7507C32.6844 7.49956 25.3677 0 16.3422 0C7.31664 0 0 7.49956 0 16.7507C0 26.0019 7.31664 33.5015 16.3422 33.5015C18.4975 33.5015 20.5554 33.0738 22.4394 32.2967C22.6173 32.3486 22.8054 32.3763 23 32.3763H31.2615C32.366 32.3763 33.2615 31.481 33.2615 30.3763V26.4425C33.2615 25.338 32.366 24.4425 31.2615 24.4425H30.8634ZM29.0027 23.6908C29.3501 23.0219 29.649 22.3219 29.8943 21.5956C29.7801 21.6231 29.6609 21.6377 29.5385 21.6377L25.6803 21.6363C25.5565 20.9581 25.2079 20.3263 24.6353 19.8586L17.7573 14.3305L18.9912 13.2132C19.2983 12.9324 19.3219 12.4585 19.0384 12.1544C18.755 11.8504 18.277 11.8328 17.9699 12.1076L14.1908 15.5293C14.1882 15.5319 14.1845 15.5333 14.1811 15.5346C14.1768 15.5363 14.1731 15.5377 14.1731 15.541C13.1749 16.4243 11.9762 15.9038 11.5215 15.4123C10.8507 14.6914 10.8318 13.5306 11.6255 12.791L11.6349 12.7723L16.2776 8.57213C16.561 8.32073 16.921 8.17108 17.2989 8.17108L17.7051 8.1755C20.4422 8.1755 23.0677 9.24833 25.0036 11.1656L29.5385 11.1715C29.5677 11.1715 29.5967 11.1723 29.6255 11.1739C27.4809 5.77429 22.3165 2 16.3422 2C10.3696 2 5.20648 5.77211 3.0607 11.1692L6.87319 11.1574C8.80527 9.24532 11.4318 8.17108 14.1622 8.17108H14.474L10.6098 11.677C9.23043 12.9314 9.13122 15.0612 10.402 16.4374C11.1058 17.1957 13.2883 18.3799 15.2062 16.6382L16.6233 15.3514L23.635 21.0323C24.2812 21.5523 24.3805 22.4908 23.8571 23.1321L23.4047 23.6858C22.8794 24.3294 21.9285 24.423 21.279 23.9081L21.0251 23.6975L19.5427 25.5043C18.9286 26.2471 17.8185 26.322 17.0683 25.7556L16.2124 25.0418C15.1613 26.3227 13.2599 26.5221 11.9608 25.475L7.68571 21.6452L2.80782 21.6478C4.77666 27.4077 10.1202 31.5015 16.3422 31.5015C17.9792 31.5015 19.5554 31.2181 21.0253 30.6956C21.0087 30.5916 21 30.485 21 30.3763V26.4425C21 25.338 21.8955 24.4425 23 24.4425H25V23.5C25 23.2239 25.2239 23 25.5 23H28.5C28.7783 23 29.0027 23.2245 29.0027 23.5013V23.6908ZM26.0027 24H28V24.4425H26.0027V24ZM23 25.4425H31.2615C31.8137 25.4425 32.2615 25.8902 32.2615 26.4425V30.3763C32.2615 30.9286 31.8137 31.3763 31.2615 31.3763H23C22.4478 31.3763 22 30.9286 22 30.3763V29.4315H32.2195V28.4315H22V26.4425C22 25.8902 22.4478 25.4425 23 25.4425Z"/>
</mask>
<path fill-rule="evenodd" clip-rule="evenodd" d="M30.8634 24.4425C32.027 22.1391 32.6844 19.5236 32.6844 16.7507C32.6844 7.49956 25.3677 0 16.3422 0C7.31664 0 0 7.49956 0 16.7507C0 26.0019 7.31664 33.5015 16.3422 33.5015C18.4975 33.5015 20.5554 33.0738 22.4394 32.2967C22.6173 32.3486 22.8054 32.3763 23 32.3763H31.2615C32.366 32.3763 33.2615 31.481 33.2615 30.3763V26.4425C33.2615 25.338 32.366 24.4425 31.2615 24.4425H30.8634ZM29.0027 23.6908C29.3501 23.0219 29.649 22.3219 29.8943 21.5956C29.7801 21.6231 29.6609 21.6377 29.5385 21.6377L25.6803 21.6363C25.5565 20.9581 25.2079 20.3263 24.6353 19.8586L17.7573 14.3305L18.9912 13.2132C19.2983 12.9324 19.3219 12.4585 19.0384 12.1544C18.755 11.8504 18.277 11.8328 17.9699 12.1076L14.1908 15.5293C14.1882 15.5319 14.1845 15.5333 14.1811 15.5346C14.1768 15.5363 14.1731 15.5377 14.1731 15.541C13.1749 16.4243 11.9762 15.9038 11.5215 15.4123C10.8507 14.6914 10.8318 13.5306 11.6255 12.791L11.6349 12.7723L16.2776 8.57213C16.561 8.32073 16.921 8.17108 17.2989 8.17108L17.7051 8.1755C20.4422 8.1755 23.0677 9.24833 25.0036 11.1656L29.5385 11.1715C29.5677 11.1715 29.5967 11.1723 29.6255 11.1739C27.4809 5.77429 22.3165 2 16.3422 2C10.3696 2 5.20648 5.77211 3.0607 11.1692L6.87319 11.1574C8.80527 9.24532 11.4318 8.17108 14.1622 8.17108H14.474L10.6098 11.677C9.23043 12.9314 9.13122 15.0612 10.402 16.4374C11.1058 17.1957 13.2883 18.3799 15.2062 16.6382L16.6233 15.3514L23.635 21.0323C24.2812 21.5523 24.3805 22.4908 23.8571 23.1321L23.4047 23.6858C22.8794 24.3294 21.9285 24.423 21.279 23.9081L21.0251 23.6975L19.5427 25.5043C18.9286 26.2471 17.8185 26.322 17.0683 25.7556L16.2124 25.0418C15.1613 26.3227 13.2599 26.5221 11.9608 25.475L7.68571 21.6452L2.80782 21.6478C4.77666 27.4077 10.1202 31.5015 16.3422 31.5015C17.9792 31.5015 19.5554 31.2181 21.0253 30.6956C21.0087 30.5916 21 30.485 21 30.3763V26.4425C21 25.338 21.8955 24.4425 23 24.4425H25V23.5C25 23.2239 25.2239 23 25.5 23H28.5C28.7783 23 29.0027 23.2245 29.0027 23.5013V23.6908ZM26.0027 24H28V24.4425H26.0027V24ZM23 25.4425H31.2615C31.8137 25.4425 32.2615 25.8902 32.2615 26.4425V30.3763C32.2615 30.9286 31.8137 31.3763 31.2615 31.3763H23C22.4478 31.3763 22 30.9286 22 30.3763V29.4315H32.2195V28.4315H22V26.4425C22 25.8902 22.4478 25.4425 23 25.4425Z" fill="#E4F1FF"/>
<path d="M30.8634 24.4425L29.9708 23.9916L29.2378 25.4425H30.8634V24.4425ZM22.4394 32.2967L22.7192 31.3367L22.3825 31.2385L22.0582 31.3723L22.4394 32.2967ZM29.0027 23.6908H28.0027L29.8901 24.1518L29.0027 23.6908ZM29.8943 21.5956L30.8417 21.9155L31.4214 20.1989L29.66 20.6234L29.8943 21.5956ZM29.5385 21.6377L29.5382 22.6377H29.5385V21.6377ZM25.6803 21.6363L24.6965 21.8158L24.8462 22.636L25.6799 22.6363L25.6803 21.6363ZM24.6353 19.8586L25.268 19.0841L25.2618 19.0791L24.6353 19.8586ZM17.7573 14.3305L17.0861 13.5893L16.2175 14.3759L17.1309 15.11L17.7573 14.3305ZM18.9912 13.2132L19.6624 13.9545L19.6661 13.9511L18.9912 13.2132ZM19.0384 12.1544L18.307 12.8363L18.307 12.8363L19.0384 12.1544ZM17.9699 12.1076L17.303 11.3625L17.2987 11.3663L17.9699 12.1076ZM14.1908 15.5293L13.5196 14.788L13.5029 14.8032L13.4868 14.819L14.1908 15.5293ZM14.1811 15.5346L13.8204 14.6019L13.8203 14.602L14.1811 15.5346ZM14.1731 15.541L14.8357 16.2899L15.1731 15.9914V15.541H14.1731ZM11.5215 15.4123L12.2556 14.7332L12.2536 14.731L11.5215 15.4123ZM11.6255 12.791L12.3072 13.5226L12.4378 13.4009L12.5182 13.2415L11.6255 12.791ZM11.6349 12.7723L10.964 12.0307L10.826 12.1556L10.7421 12.3218L11.6349 12.7723ZM16.2776 8.57213L15.614 7.82398L15.6067 7.83057L16.2776 8.57213ZM17.2989 8.17108L17.3097 7.17108H17.2989V8.17108ZM17.7051 8.1755L17.6943 9.1755H17.7051V8.1755ZM25.0036 11.1656L24.2999 11.8761L24.5916 12.1651L25.0023 12.1656L25.0036 11.1656ZM29.5385 11.1715L29.5372 12.1715H29.5385V11.1715ZM29.6255 11.1739L29.5696 12.1723L31.1328 12.2598L30.5549 10.8048L29.6255 11.1739ZM3.0607 11.1692L2.13145 10.7998L1.58517 12.1738L3.06379 12.1692L3.0607 11.1692ZM6.87319 11.1574L6.87628 12.1574L7.28565 12.1562L7.57662 11.8682L6.87319 11.1574ZM14.474 8.17108L15.1459 8.91168L17.0644 7.17108H14.474V8.17108ZM10.6098 11.677L9.93787 10.9364L9.937 10.9372L10.6098 11.677ZM10.402 16.4374L9.66727 17.1158L9.66904 17.1177L10.402 16.4374ZM15.2062 16.6382L14.534 15.8978L14.5339 15.8979L15.2062 16.6382ZM16.6233 15.3514L17.2529 14.5744L16.5863 14.0344L15.9511 14.6111L16.6233 15.3514ZM23.635 21.0323L23.0055 21.8093L23.0081 21.8114L23.635 21.0323ZM23.8571 23.1321L24.6315 23.7648L24.6318 23.7644L23.8571 23.1321ZM23.4047 23.6858L22.6303 23.0532L22.63 23.0535L23.4047 23.6858ZM21.279 23.9081L20.6406 24.6778L20.6491 24.6849L20.6578 24.6917L21.279 23.9081ZM21.0251 23.6975L21.6635 22.9278L20.8896 22.286L20.252 23.0633L21.0251 23.6975ZM19.5427 25.5043L20.3134 26.1415L20.3158 26.1386L19.5427 25.5043ZM17.0683 25.7556L16.4279 26.5236L16.4465 26.5391L16.4658 26.5537L17.0683 25.7556ZM16.2124 25.0418L16.8528 24.2738L16.0787 23.6283L15.4393 24.4075L16.2124 25.0418ZM11.9608 25.475L11.2936 26.2199L11.313 26.2372L11.3333 26.2536L11.9608 25.475ZM7.68571 21.6452L8.35296 20.9004L8.0679 20.645L7.68518 20.6452L7.68571 21.6452ZM2.80782 21.6478L2.8073 20.6478L1.40945 20.6485L1.86157 21.9712L2.80782 21.6478ZM21.0253 30.6956L21.3603 31.6378L22.1445 31.359L22.0127 30.5372L21.0253 30.6956ZM25 24.4425V25.4425H26V24.4425H25ZM28 24H29V23H28V24ZM26.0027 24V23H25.0027V24H26.0027ZM28 24.4425V25.4425H29V24.4425H28ZM26.0027 24.4425H25.0027V25.4425H26.0027V24.4425ZM22 29.4315V28.4315H21V29.4315H22ZM32.2195 29.4315V30.4315H33.2195V29.4315H32.2195ZM32.2195 28.4315H33.2195V27.4315H32.2195V28.4315ZM22 28.4315H21V29.4315H22V28.4315ZM31.6844 16.7507C31.6844 19.3642 31.0651 21.8255 29.9708 23.9916L31.756 24.8934C32.989 22.4528 33.6844 19.6831 33.6844 16.7507H31.6844ZM16.3422 1C24.7923 1 31.6844 8.02842 31.6844 16.7507H33.6844C33.6844 6.9707 25.9431 -1 16.3422 -1V1ZM1 16.7507C1 8.02842 7.89206 1 16.3422 1V-1C6.74123 -1 -1 6.9707 -1 16.7507H1ZM16.3422 32.5015C7.89206 32.5015 1 25.4731 1 16.7507H-1C-1 26.5308 6.74123 34.5015 16.3422 34.5015V32.5015ZM22.0582 31.3723C20.2926 32.1005 18.364 32.5015 16.3422 32.5015V34.5015C18.631 34.5015 20.8182 34.0471 22.8207 33.2212L22.0582 31.3723ZM22.1597 33.2568C22.4275 33.3348 22.7098 33.3763 23 33.3763V31.3763C22.9011 31.3763 22.8071 31.3623 22.7192 31.3367L22.1597 33.2568ZM23 33.3763H31.2615V31.3763H23V33.3763ZM31.2615 33.3763C32.9182 33.3763 34.2615 32.0333 34.2615 30.3763H32.2615C32.2615 30.9286 31.8137 31.3763 31.2615 31.3763V33.3763ZM34.2615 30.3763V26.4425H32.2615V30.3763H34.2615ZM34.2615 26.4425C34.2615 24.7856 32.9182 23.4425 31.2615 23.4425V25.4425C31.8137 25.4425 32.2615 25.8903 32.2615 26.4425H34.2615ZM31.2615 23.4425H30.8634V25.4425H31.2615V23.4425ZM29.8901 24.1518C30.261 23.4378 30.58 22.6906 30.8417 21.9155L28.9468 21.2757C28.718 21.9532 28.4393 22.6061 28.1153 23.2298L29.8901 24.1518ZM29.66 20.6234C29.6217 20.6327 29.5812 20.6377 29.5385 20.6377V22.6377C29.7407 22.6377 29.9385 22.6136 30.1286 22.5678L29.66 20.6234ZM29.5389 20.6377L25.6806 20.6363L25.6799 22.6363L29.5382 22.6377L29.5389 20.6377ZM26.664 21.4568C26.4999 20.5573 26.0341 19.71 25.268 19.0841L24.0027 20.633C24.3816 20.9426 24.6131 21.3588 24.6965 21.8158L26.664 21.4568ZM25.2618 19.0791L18.3838 13.5511L17.1309 15.11L24.0089 20.638L25.2618 19.0791ZM18.4285 15.0718L19.6624 13.9545L18.32 12.472L17.0861 13.5893L18.4285 15.0718ZM19.6661 13.9511C20.3745 13.3032 20.4407 12.1921 19.7699 11.4726L18.307 12.8363C18.2031 12.7249 18.222 12.5616 18.3163 12.4753L19.6661 13.9511ZM19.7699 11.4726C19.1107 10.7653 18.0106 10.7292 17.303 11.3625L18.6368 12.8528C18.5433 12.9365 18.3993 12.9354 18.307 12.8363L19.7699 11.4726ZM17.2987 11.3663L13.5196 14.788L14.8619 16.2706L18.6411 12.8489L17.2987 11.3663ZM13.4868 14.819C13.5866 14.7201 13.6848 14.6653 13.7366 14.6392C13.7856 14.6145 13.8296 14.5983 13.8204 14.6019L14.5418 16.4673C14.5418 16.4673 14.5428 16.4669 14.5438 16.4665C14.545 16.466 14.5467 16.4654 14.5488 16.4646C14.5529 16.4629 14.5592 16.4604 14.567 16.4572C14.5819 16.451 14.6065 16.4404 14.6359 16.4256C14.691 16.3979 14.7923 16.341 14.8947 16.2395L13.4868 14.819ZM13.8203 14.602C13.8202 14.602 13.8187 14.6026 13.817 14.6032C13.8152 14.6039 13.8122 14.6051 13.8086 14.6065C13.8018 14.6093 13.7897 14.6142 13.7748 14.6207C13.7493 14.632 13.6898 14.6591 13.6209 14.705C13.475 14.8023 13.1731 15.071 13.1731 15.541H15.1731C15.1731 15.7447 15.1108 15.9363 15.0052 16.0944C14.9088 16.2386 14.7969 16.3247 14.73 16.3694C14.6204 16.4424 14.5056 16.4813 14.5419 16.4672L13.8203 14.602ZM13.5104 14.7921C13.2631 15.0109 13.0284 15.043 12.8098 15.0061C12.5484 14.962 12.3341 14.8181 12.2556 14.7332L10.7875 16.0914C11.1636 16.4979 11.776 16.86 12.4772 16.9782C13.2211 17.1037 14.0848 16.9544 14.8357 16.2899L13.5104 14.7921ZM12.2536 14.731C11.9419 14.3961 11.9354 13.8691 12.3072 13.5226L10.9437 12.0594C9.72827 13.1921 9.75957 14.9868 10.7895 16.0935L12.2536 14.731ZM12.5182 13.2415L12.5277 13.2228L10.7421 12.3218L10.7327 12.3405L12.5182 13.2415ZM12.3058 13.5139L16.9484 9.31369L15.6067 7.83057L10.964 12.0307L12.3058 13.5139ZM16.9411 9.32024C17.0597 9.21508 17.1886 9.17108 17.2989 9.17108V7.17108C16.6533 7.17108 16.0623 7.42637 15.614 7.82402L16.9411 9.32024ZM17.288 9.17102L17.6943 9.17544L17.716 7.17555L17.3097 7.17114L17.288 9.17102ZM17.7051 9.1755C20.1811 9.1755 22.553 10.146 24.2999 11.8761L25.7073 10.4551C23.5824 8.35065 20.7033 7.1755 17.7051 7.1755V9.1755ZM25.0023 12.1656L29.5372 12.1715L29.5398 10.1715L25.0049 10.1656L25.0023 12.1656ZM29.5385 12.1715C29.549 12.1715 29.5594 12.1718 29.5696 12.1723L29.6814 10.1755C29.6341 10.1728 29.5864 10.1715 29.5385 10.1715V12.1715ZM30.5549 10.8048C28.2684 5.04799 22.7512 1 16.3422 1V3C21.8818 3 26.6934 6.5006 28.6961 11.543L30.5549 10.8048ZM16.3422 1C9.93501 1 4.41917 5.04565 2.13145 10.7998L3.98995 11.5387C5.99379 6.49857 10.8041 3 16.3422 3V1ZM3.06379 12.1692L6.87628 12.1574L6.8701 10.1574L3.05761 10.1692L3.06379 12.1692ZM7.57662 11.8682C9.32002 10.1428 11.6931 9.17108 14.1622 9.17108V7.17108C11.1704 7.17108 8.29053 8.34783 6.16977 10.4467L7.57662 11.8682ZM14.1622 9.17108H14.474V7.17108H14.1622V9.17108ZM13.802 7.43048L9.93787 10.9364L11.2818 12.4176L15.1459 8.91168L13.802 7.43048ZM9.937 10.9372C8.14814 12.564 8.01865 15.3304 9.66727 17.1158L11.1366 15.759C10.2438 14.792 10.3127 13.2989 11.2826 12.4168L9.937 10.9372ZM9.66904 17.1177C10.155 17.6412 11.0613 18.2395 12.1543 18.4562C13.3018 18.6837 14.6587 18.4862 15.8785 17.3785L14.5339 15.8979C13.8357 16.5319 13.1425 16.6131 12.5433 16.4944C11.8896 16.3648 11.3528 15.9918 11.1349 15.757L9.66904 17.1177ZM15.8784 17.3785L17.2956 16.0918L15.9511 14.6111L14.534 15.8978L15.8784 17.3785ZM15.9938 16.1284L23.0055 21.8093L24.2645 20.2553L17.2529 14.5744L15.9938 16.1284ZM23.0081 21.8114C23.2235 21.9847 23.2536 22.29 23.0824 22.4998L24.6318 23.7644C25.5074 22.6917 25.339 21.12 24.2619 20.2532L23.0081 21.8114ZM23.0826 22.4994L22.6303 23.0532L24.1791 24.3185L24.6315 23.7648L23.0826 22.4994ZM22.63 23.0535C22.4572 23.2653 22.1297 23.3064 21.9002 23.1244L20.6578 24.6917C21.7273 25.5396 23.3017 25.3936 24.1794 24.3181L22.63 23.0535ZM21.9173 23.1384L21.6635 22.9278L20.3867 24.4673L20.6406 24.6778L21.9173 23.1384ZM20.252 23.0633L18.7696 24.87L20.3158 26.1386L21.7982 24.3318L20.252 23.0633ZM18.772 24.8671C18.5289 25.1612 18.0326 25.2306 17.6709 24.9576L16.4658 26.5537C17.6044 27.4134 19.3283 27.333 20.3134 26.1415L18.772 24.8671ZM17.7088 24.9876L16.8528 24.2738L15.5719 25.8098L16.4279 26.5236L17.7088 24.9876ZM15.4393 24.4075C14.7366 25.2638 13.4604 25.3993 12.5884 24.6964L11.3333 26.2536C13.0595 27.6449 15.586 27.3816 16.9854 25.6762L15.4393 24.4075ZM12.6281 24.7302L8.35296 20.9004L7.01846 22.39L11.2936 26.2199L12.6281 24.7302ZM7.68518 20.6452L2.8073 20.6478L2.80834 22.6478L7.68623 22.6452L7.68518 20.6452ZM1.86157 21.9712C3.96036 28.1114 9.66724 32.5015 16.3422 32.5015V30.5015C10.5731 30.5015 5.59295 26.7041 3.75407 21.3243L1.86157 21.9712ZM16.3422 32.5015C18.0954 32.5015 19.7848 32.1979 21.3603 31.6378L20.6904 29.7533C19.326 30.2383 17.863 30.5015 16.3422 30.5015V32.5015ZM20 30.3763C20 30.5382 20.0129 30.6978 20.038 30.8539L22.0127 30.5372C22.0044 30.4854 22 30.4317 22 30.3763H20ZM20 26.4425V30.3763H22V26.4425H20ZM23 23.4425C21.3432 23.4425 20 24.7856 20 26.4425H22C22 25.8903 22.4478 25.4425 23 25.4425V23.4425ZM25 23.4425H23V25.4425H25V23.4425ZM24 23.5V24.4425H26V23.5H24ZM25.5 22C24.6716 22 24 22.6716 24 23.5H26C26 23.7762 25.7762 24 25.5 24V22ZM28.5 22H25.5V24H28.5V22ZM30.0027 23.5013C30.0027 22.6706 29.329 22 28.5 22V24C28.2276 24 28.0027 23.7784 28.0027 23.5013H30.0027ZM30.0027 23.6908V23.5013H28.0027V23.6908H30.0027ZM28 23H26.0027V25H28V23ZM29 24.4425V24H27V24.4425H29ZM26.0027 25.4425H28V23.4425H26.0027V25.4425ZM25.0027 24V24.4425H27.0027V24H25.0027ZM31.2615 24.4425H23V26.4425H31.2615V24.4425ZM33.2615 26.4425C33.2615 25.3379 32.366 24.4425 31.2615 24.4425V26.4425H33.2615ZM33.2615 30.3763V26.4425H31.2615V30.3763H33.2615ZM31.2615 32.3763C32.366 32.3763 33.2615 31.481 33.2615 30.3763H31.2615V32.3763ZM23 32.3763H31.2615V30.3763H23V32.3763ZM21 30.3763C21 31.481 21.8955 32.3763 23 32.3763V30.3763H21ZM21 29.4315V30.3763H23V29.4315H21ZM32.2195 28.4315H22V30.4315H32.2195V28.4315ZM31.2195 28.4315V29.4315H33.2195V28.4315H31.2195ZM22 29.4315H32.2195V27.4315H22V29.4315ZM21 26.4425V28.4315H23V26.4425H21ZM23 24.4425C21.8955 24.4425 21 25.3379 21 26.4425H23V24.4425Z" fill="#E4F1FF" mask="url(#path-1-inside-1_1897_4075)"/>
</svg>
