<svg width="32" height="35" viewBox="0 0 32 35" fill="none" xmlns="http://www.w3.org/2000/svg">
<path fill-rule="evenodd" clip-rule="evenodd" d="M15.7644 2.82315L18.9808 0.378235V2.01497C26.2538 3.46168 31.7356 9.8794 31.7356 17.5775C31.7356 25.3147 26.1979 31.7586 18.8696 33.1617V31.1195C25.0855 29.7478 29.7356 24.2057 29.7356 17.5775C29.7356 10.9888 25.1409 5.47335 18.9808 4.0605V5.26806L15.7644 2.82315ZM0.000155559 17.5775C0.000155559 9.84039 5.53767 3.39667 12.8656 1.99336V4.03559C6.65003 5.40741 2.00016 10.9494 2.00016 17.5775C2.00016 24.0212 6.395 29.4384 12.3508 30.9953L12.3758 29.559L15.5491 32.0596L12.2905 34.448L12.315 33.0459C5.26203 31.4326 0.000155559 25.1195 0.000155559 17.5775ZM26.5889 17.5775C26.5889 23.4988 21.7887 28.2989 15.8674 28.2989C9.94615 28.2989 5.146 23.4988 5.146 17.5775C5.146 11.6562 9.94615 6.85607 15.8674 6.85607C21.7887 6.85607 26.5889 11.6562 26.5889 17.5775ZM14.6457 11.1446H17.2595C17.243 11.306 17.2262 11.4676 17.2094 11.6293L17.2093 11.6304L17.2091 11.6319C17.1736 11.9731 17.1381 12.3148 17.1055 12.6552C18.1222 12.718 19.1132 12.9966 20.0048 13.4091C19.6199 14.2341 19.2318 15.059 18.8438 15.8839C18.0933 15.3403 17.1055 15.0399 16.1209 15.0508C15.874 15.0563 15.6174 15.0972 15.4122 15.2174C15.2775 15.2966 15.178 15.4196 15.1492 15.5561C15.1267 15.6654 15.1331 15.7883 15.2037 15.8867C15.2839 15.9959 15.425 16.0615 15.5661 16.1025C15.7934 16.1713 16.0346 16.1893 16.2741 16.2072L16.2741 16.2072L16.2741 16.2072L16.2742 16.2072C16.3388 16.212 16.4033 16.2168 16.4673 16.2226C17.1761 16.2964 17.8881 16.4002 18.5583 16.616C19.0779 16.7853 19.575 17.0394 19.931 17.4109C20.2677 17.7523 20.4634 18.1839 20.5371 18.6264C20.6237 19.1372 20.5981 19.6672 20.4121 20.1643C20.2677 20.5631 20.0208 20.9346 19.7001 21.2487C19.0362 21.9043 18.0612 22.2977 17.0606 22.3987C17.0818 22.7542 17.1058 23.1084 17.1298 23.463C17.1421 23.6453 17.1545 23.8277 17.1665 24.0104H14.6906C14.7043 23.7821 14.7198 23.5538 14.7353 23.3255C14.756 23.0211 14.7767 22.7168 14.7932 22.4124C14.1293 22.3933 13.4719 22.2676 12.8529 22.0682C12.2532 21.8743 11.6823 21.6175 11.1499 21.317L11.151 21.3146C11.5419 20.4577 11.9328 19.6008 12.3269 18.7412C12.7727 19.0608 13.2474 19.3585 13.7669 19.5852C14.3249 19.8283 14.9439 19.984 15.5725 19.9895C15.8708 19.9922 16.1787 19.9786 16.4609 19.8911C16.6341 19.8365 16.8041 19.7409 16.881 19.5907C16.9612 19.4322 16.9548 19.2328 16.8329 19.0908C16.7463 18.9952 16.6245 18.9296 16.4962 18.8832C16.323 18.8231 16.1434 18.7903 15.9606 18.7657C15.8693 18.7531 15.7779 18.7409 15.6866 18.7286C15.1041 18.6502 14.5221 18.5719 13.9593 18.4161C13.4366 18.2713 12.9266 18.0692 12.5097 17.7578C12.2467 17.5638 12.0287 17.3262 11.8747 17.0585C11.6438 16.6597 11.5572 16.209 11.5636 15.7665C11.5636 15.2721 11.6823 14.7694 11.9709 14.3351C12.2211 13.9472 12.6027 13.6304 13.0325 13.3873C13.552 13.095 14.1325 12.8956 14.7226 12.7344L14.6457 11.1446Z" fill="#E4F1FF"/>
</svg>
