<svg width="34" height="34" viewBox="0 0 34 34" fill="none" xmlns="http://www.w3.org/2000/svg">
<mask id="path-1-inside-1_1503_3839" fill="white">
<path fill-rule="evenodd" clip-rule="evenodd" d="M16.7507 33.5015C26.0019 33.5015 33.5015 26.0019 33.5015 16.7507C33.5015 7.49956 26.0019 0 16.7507 0C7.49956 0 0 7.49956 0 16.7507C0 26.0019 7.49956 33.5015 16.7507 33.5015ZM15.2625 17.7211H18.2392C21.253 17.7211 23.6963 19.9847 23.6963 22.7769C23.6963 23.2845 23.252 23.6962 22.7041 23.6962H10.7976C10.2497 23.6962 9.80542 23.2845 9.80542 22.7769C9.80542 19.9847 12.2487 17.7211 15.2625 17.7211ZM15.2625 19.0999C13.2409 19.0999 11.5694 20.5047 11.3244 22.3173H22.177C21.932 20.5061 20.2595 19.0999 18.2392 19.0999H15.2625ZM20.7197 12.6652C20.7197 14.6959 18.9427 16.3422 16.7508 16.3422C14.5587 16.3422 12.782 14.6962 12.782 12.6652C12.782 10.6345 14.559 8.98822 16.7508 8.98822C18.9427 8.98822 20.7197 10.6345 20.7197 12.6652ZM19.2314 12.6652C19.2314 11.3981 18.1185 10.3671 16.7508 10.3671C15.3835 10.3671 14.2703 11.3981 14.2703 12.6652C14.2703 13.932 15.3832 14.9633 16.7508 14.9633C18.1185 14.9633 19.2314 13.9323 19.2314 12.6652Z"/>
</mask>
<path fill-rule="evenodd" clip-rule="evenodd" d="M16.7507 33.5015C26.0019 33.5015 33.5015 26.0019 33.5015 16.7507C33.5015 7.49956 26.0019 0 16.7507 0C7.49956 0 0 7.49956 0 16.7507C0 26.0019 7.49956 33.5015 16.7507 33.5015ZM15.2625 17.7211H18.2392C21.253 17.7211 23.6963 19.9847 23.6963 22.7769C23.6963 23.2845 23.252 23.6962 22.7041 23.6962H10.7976C10.2497 23.6962 9.80542 23.2845 9.80542 22.7769C9.80542 19.9847 12.2487 17.7211 15.2625 17.7211ZM15.2625 19.0999C13.2409 19.0999 11.5694 20.5047 11.3244 22.3173H22.177C21.932 20.5061 20.2595 19.0999 18.2392 19.0999H15.2625ZM20.7197 12.6652C20.7197 14.6959 18.9427 16.3422 16.7508 16.3422C14.5587 16.3422 12.782 14.6962 12.782 12.6652C12.782 10.6345 14.559 8.98822 16.7508 8.98822C18.9427 8.98822 20.7197 10.6345 20.7197 12.6652ZM19.2314 12.6652C19.2314 11.3981 18.1185 10.3671 16.7508 10.3671C15.3835 10.3671 14.2703 11.3981 14.2703 12.6652C14.2703 13.932 15.3832 14.9633 16.7508 14.9633C18.1185 14.9633 19.2314 13.9323 19.2314 12.6652Z" fill="#E4F1FF"/>
<path d="M11.3244 22.3173L9.34244 22.0495L9.03598 24.3173H11.3244V22.3173ZM22.177 22.3173V24.3173H24.4657L24.1589 22.0493L22.177 22.3173ZM31.5015 16.7507C31.5015 24.8973 24.8973 31.5015 16.7507 31.5015V35.5015C27.1065 35.5015 35.5015 27.1065 35.5015 16.7507H31.5015ZM16.7507 2C24.8973 2 31.5015 8.60413 31.5015 16.7507H35.5015C35.5015 6.39499 27.1065 -2 16.7507 -2V2ZM2 16.7507C2 8.60413 8.60413 2 16.7507 2V-2C6.39499 -2 -2 6.39499 -2 16.7507H2ZM16.7507 31.5015C8.60413 31.5015 2 24.8973 2 16.7507H-2C-2 27.1065 6.39499 35.5015 16.7507 35.5015V31.5015ZM18.2392 15.7211H15.2625V19.7211H18.2392V15.7211ZM25.6963 22.7769C25.6963 18.7391 22.211 15.7211 18.2392 15.7211V19.7211C20.295 19.7211 21.6963 21.2304 21.6963 22.7769H25.6963ZM22.7041 25.6962C24.2099 25.6962 25.6963 24.5302 25.6963 22.7769H21.6963C21.6963 22.0389 22.294 21.6962 22.7041 21.6962V25.6962ZM10.7976 25.6962H22.7041V21.6962H10.7976V25.6962ZM7.80542 22.7769C7.80542 24.5302 9.29175 25.6962 10.7976 25.6962V21.6962C11.2077 21.6962 11.8054 22.0389 11.8054 22.7769H7.80542ZM15.2625 15.7211C11.2907 15.7211 7.80542 18.7391 7.80542 22.7769H11.8054C11.8054 21.2304 13.2067 19.7211 15.2625 19.7211V15.7211ZM13.3064 22.5851C13.4037 21.8648 14.1374 21.0999 15.2625 21.0999V17.0999C12.3445 17.0999 9.735 19.1445 9.34244 22.0495L13.3064 22.5851ZM22.177 20.3173H11.3244V24.3173H22.177V20.3173ZM18.2392 21.0999C19.3626 21.0999 20.0977 21.8659 20.195 22.5854L24.1589 22.0493C23.7663 19.1463 21.1564 17.0999 18.2392 17.0999V21.0999ZM15.2625 21.0999H18.2392V17.0999H15.2625V21.0999ZM16.7508 18.3422C19.9007 18.3422 22.7197 15.9415 22.7197 12.6652H18.7197C18.7197 13.4502 17.9847 14.3422 16.7508 14.3422V18.3422ZM10.782 12.6652C10.782 15.9418 13.6007 18.3422 16.7508 18.3422V14.3422C15.5167 14.3422 14.782 13.4505 14.782 12.6652H10.782ZM16.7508 6.98822C13.601 6.98822 10.782 9.38888 10.782 12.6652H14.782C14.782 11.8802 15.517 10.9882 16.7508 10.9882V6.98822ZM22.7197 12.6652C22.7197 9.38887 19.9007 6.98822 16.7508 6.98822V10.9882C17.9847 10.9882 18.7197 11.8802 18.7197 12.6652H22.7197ZM16.7508 12.3671C16.9294 12.3671 17.0644 12.4337 17.1447 12.5081C17.2227 12.5804 17.2314 12.6375 17.2314 12.6652H21.2314C21.2314 10.1524 19.0765 8.36709 16.7508 8.36709V12.3671ZM16.2703 12.6652C16.2703 12.6377 16.2789 12.5805 16.357 12.5082C16.4375 12.4336 16.5726 12.3671 16.7508 12.3671V8.36709C14.4256 8.36709 12.2703 10.1523 12.2703 12.6652H16.2703ZM16.7508 12.9633C16.5725 12.9633 16.4375 12.8968 16.357 12.8223C16.2789 12.7499 16.2703 12.6927 16.2703 12.6652H12.2703C12.2703 15.1776 14.425 16.9633 16.7508 16.9633V12.9633ZM17.2314 12.6652C17.2314 12.6929 17.2227 12.7501 17.1447 12.8223C17.0644 12.8968 16.9294 12.9633 16.7508 12.9633V16.9633C19.0765 16.9633 21.2314 15.178 21.2314 12.6652H17.2314Z" fill="#E4F1FF" mask="url(#path-1-inside-1_1503_3839)"/>
</svg>
