<svg width="16" height="15" viewBox="0 0 16 15" fill="none" xmlns="http://www.w3.org/2000/svg">
<path d="M15.3934 6.53234L1.39372 0.116613C1.26685 0.0584737 1.1331 0 1.00061 0C0.731143 0 0.466242 0.116914 0.272495 0.335806C-0.0155708 0.691994 -0.0819664 1.17616 0.10553 1.57745L2.99994 7.5147L0.105624 13.4523C-0.0818727 13.8539 -0.0154677 14.3377 0.27262 14.6642C0.465992 14.883 0.730736 15 1.00011 15C1.13292 15 1.26669 14.9718 1.39354 14.9133L15.3934 8.49706C15.7616 8.32896 16 7.94206 16 7.51437C15.9716 7.08701 15.7622 6.69941 15.3934 6.53234ZM0.999356 1.10031C0.998731 1.10064 0.999669 1.09964 0.999356 1.10031L13.8341 6.98009H3.86555L0.999356 1.10031ZM0.992169 13.9468L3.86555 8.04932H13.806L0.992169 13.9468Z" fill="black" fill-opacity="0.6"/>
</svg>
