<svg width="36" height="36" viewBox="0 0 36 36" fill="none" xmlns="http://www.w3.org/2000/svg">
<circle cx="18" cy="18" r="17.5" fill="white" stroke="white"/>
<g clip-path="url(#clip0_7607_68451)">
<path d="M12.294 26.1429C13.7614 23.4807 16.365 22.108 15.9529 20.171C15.7555 19.4148 15.3964 18.7086 14.8995 18.0996C14.5442 17.6824 14.1221 17.3249 13.6497 17.0412C13.0065 16.6625 12.4788 16.5622 11.4466 16.3766C10.3435 16.1833 9.22388 16.0958 8.10354 16.1153C7.14067 16.1153 6.65538 16.1399 6.21053 16.2876C5.64628 16.477 5.39016 16.7117 5.26691 16.6152C5.14366 16.5186 5.21299 16.0471 6.10076 14.5324C6.59195 13.8702 7.22502 13.3221 7.95526 12.9268C8.89888 12.4307 9.77895 12.3323 10.7476 12.2262C11.9608 12.0899 12.1072 12.266 12.8274 12.0161C13.4802 11.7907 13.8269 11.5351 14.6087 11.0353C15.0466 10.7329 15.5061 10.4621 15.9837 10.2249C16.4049 10.0324 16.845 9.8827 17.2971 9.77804C17.8491 9.63634 18.4157 9.55631 18.986 9.53947C19.6253 9.51864 22.0537 9.52622 24.0468 11.1754C25.183 12.1221 25.6741 13.1729 26.3366 14.6006C26.8688 15.8199 27.311 17.0753 27.6595 18.3571C27.9215 19.2679 27.906 19.3512 28.1121 19.9457C28.4433 20.9038 28.8362 21.6062 29.5969 23.0168C30.3575 24.4274 31.2049 25.8569 31.3878 26.1561C31.7958 26.9012 32.0492 27.7186 32.1331 28.5607C32.135 28.5935 32.135 28.6264 32.1331 28.6592C34.4914 25.7188 35.8402 22.1187 35.9855 18.3767C36.1308 14.6348 35.065 10.944 32.9415 7.83544C30.8181 4.72684 27.7463 2.36068 24.1684 1.07741C20.5904 -0.205865 16.6906 -0.340095 13.0301 0.694031C9.36966 1.72816 6.13719 3.87733 3.79782 6.83232C1.45845 9.7873 0.132784 13.3958 0.011564 17.1385C-0.109656 20.8813 0.979817 24.5653 3.12323 27.6607C5.26664 30.756 8.35349 33.1031 11.9396 34.3641C10.3451 32.3324 10.9883 28.5096 12.294 26.1429Z" fill="url(#paint0_linear_7607_68451)"/>
<path d="M19.995 13.2553C19.7326 13.3672 19.4623 13.4602 19.1862 13.5336C18.4621 13.723 17.8381 13.8953 17.2604 13.6226C16.9342 13.4573 16.6724 13.1912 16.5151 12.8652L19.995 13.2553Z" fill="url(#paint1_linear_7607_68451)"/>
</g>
<circle cx="18" cy="18" r="17.5" stroke="white"/>
<defs>
<linearGradient id="paint0_linear_7607_68451" x1="18.4737" y1="4.01637" x2="16.5878" y2="60.4197" gradientUnits="userSpaceOnUse">
<stop offset="0.16" stop-color="#C2C4C7"/>
<stop offset="1" stop-color="#72757E"/>
</linearGradient>
<linearGradient id="paint1_linear_7607_68451" x1="18.5699" y1="4.02108" x2="16.6859" y2="60.4244" gradientUnits="userSpaceOnUse">
<stop offset="0.16" stop-color="#C2C4C7"/>
<stop offset="1" stop-color="#72757E"/>
</linearGradient>
<clipPath id="clip0_7607_68451">
<rect width="36" height="34.3636" fill="white"/>
</clipPath>
</defs>
</svg>
